<?xml version="1.0" encoding="UTF-8"?>
<svg xmlns="http://www.w3.org/2000/svg" width="1400" height="1000" viewBox="0 0 1400 1000">
<rect x="0.00" y="0.00" width="1400.00" height="1000.00" fill="#ffffff" stroke="none" stroke-width="0" rx="0.00"/>
<rect x="50.00" y="50.00" width="1300.00" height="820.00" fill="#f9f9fd" stroke="#ccccdd" stroke-width="1.0" rx="4.00"/>
<rect x="110.00" y="110.00" width="357.00" height="238.00" fill="#f4f6fb" stroke="#1a1a2e" stroke-width="2.0" rx="4.46"/>
<rect x="115.95" y="115.95" width="345.10" height="226.10" fill="none" stroke="#888888" stroke-width="0.9" stroke-dasharray="6,3" rx="0.00"/>
<rect x="162.06" y="147.19" width="252.88" height="163.62" fill="none" stroke="#4477aa" stroke-width="0.8" stroke-dasharray="3,3" rx="0.00"/>
<circle cx="139.75" cy="139.75" r="4.76" fill="none" stroke="#1a1a2e" stroke-width="1.2"/>
<line x1="128.99" y1="139.75" x2="150.51" y2="139.75" stroke="#cc3333" stroke-width="0.7" stroke-dasharray="5,3"/>
<line x1="139.75" y1="128.99" x2="139.75" y2="150.51" stroke="#cc3333" stroke-width="0.7" stroke-dasharray="5,3"/>
<circle cx="437.25" cy="139.75" r="4.76" fill="none" stroke="#1a1a2e" stroke-width="1.2"/>
<line x1="426.49" y1="139.75" x2="448.01" y2="139.75" stroke="#cc3333" stroke-width="0.7" stroke-dasharray="5,3"/>
<line x1="437.25" y1="128.99" x2="437.25" y2="150.51" stroke="#cc3333" stroke-width="0.7" stroke-dasharray="5,3"/>
<circle cx="139.75" cy="318.25" r="4.76" fill="none" stroke="#1a1a2e" stroke-width="1.2"/>
<line x1="128.99" y1="318.25" x2="150.51" y2="318.25" stroke="#cc3333" stroke-width="0.7" stroke-dasharray="5,3"/>
<line x1="139.75" y1="307.49" x2="139.75" y2="329.01" stroke="#cc3333" stroke-width="0.7" stroke-dasharray="5,3"/>
<circle cx="437.25" cy="318.25" r="4.76" fill="none" stroke="#1a1a2e" stroke-width="1.2"/>
<line x1="426.49" y1="318.25" x2="448.01" y2="318.25" stroke="#cc3333" stroke-width="0.7" stroke-dasharray="5,3"/>
<line x1="437.25" y1="307.49" x2="437.25" y2="329.01" stroke="#cc3333" stroke-width="0.7" stroke-dasharray="5,3"/>
<line x1="139.75" y1="77.00" x2="139.75" y2="111.00" stroke="#1a5fb4" stroke-width="0.8"/>
<line x1="437.25" y1="77.00" x2="437.25" y2="111.00" stroke="#1a5fb4" stroke-width="0.8"/>
<line x1="139.75" y1="83.00" x2="437.25" y2="83.00" stroke="#1a5fb4" stroke-width="0.9"/>
<polygon points="139.75,83.00 148.75,86.50 148.75,79.50" fill="#1a5fb4" stroke="#1a5fb4" stroke-width="0"/>
<polygon points="437.25,83.00 428.25,79.50 428.25,86.50" fill="#1a5fb4" stroke="#1a5fb4" stroke-width="0"/>
<rect x="266.50" y="76.00" width="44.00" height="13.00" fill="white" stroke="none" stroke-width="0" rx="0.00"/>
<text x="288.50" y="83.00" font-family="Noto Sans JP, Meiryo, Yu Gothic, Arial, sans-serif" font-size="12" fill="#1a5fb4" text-anchor="middle" dominant-baseline="central" font-weight="normal" font-style="normal">P.C.D 100</text>
<line x1="77.00" y1="139.75" x2="111.00" y2="139.75" stroke="#1a5fb4" stroke-width="0.8"/>
<line x1="77.00" y1="318.25" x2="111.00" y2="318.25" stroke="#1a5fb4" stroke-width="0.8"/>
<line x1="83.00" y1="139.75" x2="83.00" y2="318.25" stroke="#1a5fb4" stroke-width="0.9"/>
<polygon points="83.00,139.75 79.50,148.75 86.50,148.75" fill="#1a5fb4" stroke="#1a5fb4" stroke-width="0"/>
<polygon points="83.00,318.25 86.50,309.25 79.50,309.25" fill="#1a5fb4" stroke="#1a5fb4" stroke-width="0"/>
<rect x="76.00" y="207.00" width="13.00" height="44.00" fill="white" stroke="none" stroke-width="0" rx="0.00"/>
<text x="83.00" y="229.00" font-family="Noto Sans JP, Meiryo, Yu Gothic, Arial, sans-serif" font-size="12" fill="#1a5fb4" text-anchor="middle" dominant-baseline="central" transform="rotate(-90,83.00,229.00)">P.C.D 60</text>
<line x1="110.00" y1="342.00" x2="110.00" y2="376.00" stroke="#1a5fb4" stroke-width="0.8"/>
<line x1="467.00" y1="342.00" x2="467.00" y2="376.00" stroke="#1a5fb4" stroke-width="0.8"/>
<line x1="110.00" y1="370.00" x2="467.00" y2="370.00" stroke="#1a5fb4" stroke-width="0.9"/>
<polygon points="110.00,370.00 119.00,373.50 119.00,366.50" fill="#1a5fb4" stroke="#1a5fb4" stroke-width="0"/>
<polygon points="467.00,370.00 458.00,366.50 458.00,373.50" fill="#1a5fb4" stroke="#1a5fb4" stroke-width="0"/>
<rect x="266.50" y="363.00" width="44.00" height="13.00" fill="white" stroke="none" stroke-width="0" rx="0.00"/>
<text x="288.50" y="370.00" font-family="Noto Sans JP, Meiryo, Yu Gothic, Arial, sans-serif" font-size="12" fill="#1a5fb4" text-anchor="middle" dominant-baseline="central" font-weight="normal" font-style="normal">120</text>
<line x1="461.00" y1="110.00" x2="495.00" y2="110.00" stroke="#1a5fb4" stroke-width="0.8"/>
<line x1="461.00" y1="348.00" x2="495.00" y2="348.00" stroke="#1a5fb4" stroke-width="0.8"/>
<line x1="489.00" y1="110.00" x2="489.00" y2="348.00" stroke="#1a5fb4" stroke-width="0.9"/>
<polygon points="489.00,110.00 485.50,119.00 492.50,119.00" fill="#1a5fb4" stroke="#1a5fb4" stroke-width="0"/>
<polygon points="489.00,348.00 492.50,339.00 485.50,339.00" fill="#1a5fb4" stroke="#1a5fb4" stroke-width="0"/>
<rect x="482.00" y="207.00" width="13.00" height="44.00" fill="white" stroke="none" stroke-width="0" rx="0.00"/>
<text x="489.00" y="229.00" font-family="Noto Sans JP, Meiryo, Yu Gothic, Arial, sans-serif" font-size="12" fill="#1a5fb4" text-anchor="middle" dominant-baseline="central" transform="rotate(-90,489.00,229.00)">80</text>
<text x="288.50" y="88.00" font-family="Noto Sans JP, Meiryo, Yu Gothic, Arial, sans-serif" font-size="14" fill="#222222" text-anchor="middle" dominant-baseline="central" font-weight="bold" font-style="normal">上面図 TOP VIEW</text>
<rect x="110.00" y="413.00" width="357.00" height="119.00" fill="#eef1f8" stroke="#1a1a2e" stroke-width="2.0" rx="4.46"/>
<rect x="115.95" y="418.95" width="345.10" height="107.10" fill="none" stroke="#888888" stroke-width="0.9" stroke-dasharray="6,3" rx="0.00"/>
<circle cx="112.97" cy="472.50" r="18.59" fill="none" stroke="#888888" stroke-width="1.0" stroke-dasharray="4,2"/>
<line x1="88.38" y1="472.50" x2="137.57" y2="472.50" stroke="#cc3333" stroke-width="0.7" stroke-dasharray="5,3"/>
<line x1="112.97" y1="447.91" x2="112.97" y2="497.09" stroke="#cc3333" stroke-width="0.7" stroke-dasharray="5,3"/>
<line x1="110.00" y1="385.00" x2="110.00" y2="419.00" stroke="#1a5fb4" stroke-width="0.8"/>
<line x1="467.00" y1="385.00" x2="467.00" y2="419.00" stroke="#1a5fb4" stroke-width="0.8"/>
<line x1="110.00" y1="391.00" x2="467.00" y2="391.00" stroke="#1a5fb4" stroke-width="0.9"/>
<polygon points="110.00,391.00 119.00,394.50 119.00,387.50" fill="#1a5fb4" stroke="#1a5fb4" stroke-width="0"/>
<polygon points="467.00,391.00 458.00,387.50 458.00,394.50" fill="#1a5fb4" stroke="#1a5fb4" stroke-width="0"/>
<rect x="266.50" y="384.00" width="44.00" height="13.00" fill="white" stroke="none" stroke-width="0" rx="0.00"/>
<text x="288.50" y="391.00" font-family="Noto Sans JP, Meiryo, Yu Gothic, Arial, sans-serif" font-size="12" fill="#1a5fb4" text-anchor="middle" dominant-baseline="central" font-weight="normal" font-style="normal">120</text>
<line x1="82.00" y1="413.00" x2="116.00" y2="413.00" stroke="#1a5fb4" stroke-width="0.8"/>
<line x1="82.00" y1="532.00" x2="116.00" y2="532.00" stroke="#1a5fb4" stroke-width="0.8"/>
<line x1="88.00" y1="413.00" x2="88.00" y2="532.00" stroke="#1a5fb4" stroke-width="0.9"/>
<polygon points="88.00,413.00 84.50,422.00 91.50,422.00" fill="#1a5fb4" stroke="#1a5fb4" stroke-width="0"/>
<polygon points="88.00,532.00 91.50,523.00 84.50,523.00" fill="#1a5fb4" stroke="#1a5fb4" stroke-width="0"/>
<rect x="81.00" y="450.50" width="13.00" height="44.00" fill="white" stroke="none" stroke-width="0" rx="0.00"/>
<text x="88.00" y="472.50" font-family="Noto Sans JP, Meiryo, Yu Gothic, Arial, sans-serif" font-size="12" fill="#1a5fb4" text-anchor="middle" dominant-baseline="central" transform="rotate(-90,88.00,472.50)">40</text>
<text x="288.50" y="562.00" font-family="Noto Sans JP, Meiryo, Yu Gothic, Arial, sans-serif" font-size="14" fill="#222222" text-anchor="middle" dominant-baseline="central" font-weight="bold" font-style="normal">正面図 FRONT VIEW</text>
<rect x="532.00" y="413.00" width="238.00" height="119.00" fill="#dde2f0" stroke="#1a1a2e" stroke-width="2.0" rx="4.46"/>
<rect x="537.95" y="418.95" width="226.10" height="107.10" fill="none" stroke="#888888" stroke-width="0.9" stroke-dasharray="6,3" rx="0.00"/>
<circle cx="534.98" cy="472.50" r="18.59" fill="none" stroke="#1a1a2e" stroke-width="1.0"/>
<line x1="510.38" y1="472.50" x2="559.57" y2="472.50" stroke="#cc3333" stroke-width="0.7" stroke-dasharray="5,3"/>
<line x1="534.98" y1="447.91" x2="534.98" y2="497.09" stroke="#cc3333" stroke-width="0.7" stroke-dasharray="5,3"/>
<line x1="532.00" y1="385.00" x2="532.00" y2="419.00" stroke="#1a5fb4" stroke-width="0.8"/>
<line x1="770.00" y1="385.00" x2="770.00" y2="419.00" stroke="#1a5fb4" stroke-width="0.8"/>
<line x1="532.00" y1="391.00" x2="770.00" y2="391.00" stroke="#1a5fb4" stroke-width="0.9"/>
<polygon points="532.00,391.00 541.00,394.50 541.00,387.50" fill="#1a5fb4" stroke="#1a5fb4" stroke-width="0"/>
<polygon points="770.00,391.00 761.00,387.50 761.00,394.50" fill="#1a5fb4" stroke="#1a5fb4" stroke-width="0"/>
<rect x="629.00" y="384.00" width="44.00" height="13.00" fill="white" stroke="none" stroke-width="0" rx="0.00"/>
<text x="651.00" y="391.00" font-family="Noto Sans JP, Meiryo, Yu Gothic, Arial, sans-serif" font-size="12" fill="#1a5fb4" text-anchor="middle" dominant-baseline="central" font-weight="normal" font-style="normal">80</text>
<line x1="764.00" y1="413.00" x2="798.00" y2="413.00" stroke="#1a5fb4" stroke-width="0.8"/>
<line x1="764.00" y1="532.00" x2="798.00" y2="532.00" stroke="#1a5fb4" stroke-width="0.8"/>
<line x1="792.00" y1="413.00" x2="792.00" y2="532.00" stroke="#1a5fb4" stroke-width="0.9"/>
<polygon points="792.00,413.00 788.50,422.00 795.50,422.00" fill="#1a5fb4" stroke="#1a5fb4" stroke-width="0"/>
<polygon points="792.00,532.00 795.50,523.00 788.50,523.00" fill="#1a5fb4" stroke="#1a5fb4" stroke-width="0"/>
<rect x="785.00" y="450.50" width="13.00" height="44.00" fill="white" stroke="none" stroke-width="0" rx="0.00"/>
<text x="792.00" y="472.50" font-family="Noto Sans JP, Meiryo, Yu Gothic, Arial, sans-serif" font-size="12" fill="#1a5fb4" text-anchor="middle" dominant-baseline="central" transform="rotate(-90,792.00,472.50)">40</text>
<text x="651.00" y="562.00" font-family="Noto Sans JP, Meiryo, Yu Gothic, Arial, sans-serif" font-size="14" fill="#222222" text-anchor="middle" dominant-baseline="central" font-weight="bold" font-style="normal">側面図 SIDE VIEW</text>
<polygon points="1090.00,317.05 1290.96,433.07 1156.99,510.42 956.03,394.40" fill="#f4f6fb" stroke="#1a1a2e" stroke-width="1.5"/>
<polygon points="1090.00,394.40 1290.96,510.42 1290.96,433.07 1090.00,317.05" fill="#eef1f8" stroke="#1a1a2e" stroke-width="1.5"/>
<polygon points="1290.96,510.42 1156.99,587.77 1156.99,510.42 1290.96,433.07" fill="#dde2f0" stroke="#1a1a2e" stroke-width="1.5"/>
<line x1="1090.00" y1="394.40" x2="1290.96" y2="510.42" stroke="#1a1a2e" stroke-width="2.0"/>
<line x1="1290.96" y1="510.42" x2="1290.96" y2="433.07" stroke="#1a1a2e" stroke-width="2.0"/>
<line x1="1290.96" y1="433.07" x2="1090.00" y2="317.05" stroke="#1a1a2e" stroke-width="2.0"/>
<line x1="1090.00" y1="317.05" x2="1090.00" y2="394.40" stroke="#1a1a2e" stroke-width="2.0"/>
<line x1="1090.00" y1="394.40" x2="956.03" y2="471.75" stroke="#1a1a2e" stroke-width="2.0"/>
<line x1="1290.96" y1="510.42" x2="1156.99" y2="587.77" stroke="#1a1a2e" stroke-width="2.0"/>
<line x1="956.03" y1="471.75" x2="1156.99" y2="587.77" stroke="#1a1a2e" stroke-width="2.0"/>
<line x1="1156.99" y1="587.77" x2="1156.99" y2="510.42" stroke="#1a1a2e" stroke-width="2.0"/>
<line x1="1156.99" y1="510.42" x2="956.03" y2="394.40" stroke="#1a1a2e" stroke-width="2.0"/>
<line x1="956.03" y1="394.40" x2="1090.00" y2="317.05" stroke="#1a1a2e" stroke-width="2.0"/>
<line x1="1290.96" y1="433.07" x2="1156.99" y2="510.42" stroke="#1a1a2e" stroke-width="2.0"/>
<circle cx="1090.00" cy="336.39" r="2.63" fill="#ccccdd" stroke="#1a1a2e" stroke-width="0.8"/>
<line x1="1085.05" y1="336.39" x2="1094.95" y2="336.39" stroke="#cc3333" stroke-width="0.7" stroke-dasharray="5,3"/>
<line x1="1090.00" y1="331.44" x2="1090.00" y2="341.34" stroke="#cc3333" stroke-width="0.7" stroke-dasharray="5,3"/>
<circle cx="1257.47" cy="433.07" r="2.63" fill="#ccccdd" stroke="#1a1a2e" stroke-width="0.8"/>
<line x1="1252.52" y1="433.07" x2="1262.42" y2="433.07" stroke="#cc3333" stroke-width="0.7" stroke-dasharray="5,3"/>
<line x1="1257.47" y1="428.12" x2="1257.47" y2="438.03" stroke="#cc3333" stroke-width="0.7" stroke-dasharray="5,3"/>
<circle cx="989.52" cy="394.40" r="2.63" fill="#ccccdd" stroke="#1a1a2e" stroke-width="0.8"/>
<line x1="984.57" y1="394.40" x2="994.47" y2="394.40" stroke="#cc3333" stroke-width="0.7" stroke-dasharray="5,3"/>
<line x1="989.52" y1="389.45" x2="989.52" y2="399.35" stroke="#cc3333" stroke-width="0.7" stroke-dasharray="5,3"/>
<circle cx="1156.99" cy="491.09" r="2.63" fill="#ccccdd" stroke="#1a1a2e" stroke-width="0.8"/>
<line x1="1152.04" y1="491.09" x2="1161.94" y2="491.09" stroke="#cc3333" stroke-width="0.7" stroke-dasharray="5,3"/>
<line x1="1156.99" y1="486.14" x2="1156.99" y2="496.04" stroke="#cc3333" stroke-width="0.7" stroke-dasharray="5,3"/>
<line x1="1090.00" y1="406.00" x2="1290.96" y2="522.03" stroke="#1a5fb4" stroke-width="0.8"/>
<text x="1190.48" y="455.01" font-family="Noto Sans JP, Meiryo, Yu Gothic, Arial, sans-serif" font-size="11" fill="#1a5fb4" text-anchor="middle" dominant-baseline="central" font-weight="normal" font-style="normal">W 120</text>
<line x1="1081.63" y1="389.57" x2="1081.63" y2="312.22" stroke="#1a5fb4" stroke-width="0.8"/>
<text x="1067.63" y="350.89" font-family="Noto Sans JP, Meiryo, Yu Gothic, Arial, sans-serif" font-size="11" fill="#1a5fb4" text-anchor="middle" dominant-baseline="central" font-weight="normal" font-style="normal">H 40</text>
<line x1="1299.33" y1="515.26" x2="1165.36" y2="592.61" stroke="#1a5fb4" stroke-width="0.8"/>
<text x="1247.35" y="553.93" font-family="Noto Sans JP, Meiryo, Yu Gothic, Arial, sans-serif" font-size="11" fill="#1a5fb4" text-anchor="middle" dominant-baseline="central" font-weight="normal" font-style="normal">D 80</text>
<text x="1090.00" y="557.76" font-family="Noto Sans JP, Meiryo, Yu Gothic, Arial, sans-serif" font-size="14" fill="#222222" text-anchor="middle" dominant-baseline="central" font-weight="bold" font-style="normal">等角図 ISOMETRIC VIEW</text>
<text x="60.00" y="858.00" font-family="Noto Sans JP, Meiryo, Yu Gothic, Arial, sans-serif" font-size="10" fill="#aaaaaa" text-anchor="start" dominant-baseline="central" font-weight="normal" font-style="italic">第三角法 / Third-angle projection</text>
<rect x="50.00" y="920.00" width="1300.00" height="80.00" fill="#1a1a2e" stroke="#1a1a2e" stroke-width="0" rx="0.00"/>
<text x="74.00" y="948.00" font-family="Noto Sans JP, Meiryo, Yu Gothic, Arial, sans-serif" font-size="22" fill="#ffffff" text-anchor="start" dominant-baseline="central" font-weight="bold" font-style="normal">部品</text>
<text x="74.00" y="977.60" font-family="Noto Sans JP, Meiryo, Yu Gothic, Arial, sans-serif" font-size="13" fill="#9999cc" text-anchor="start" dominant-baseline="central" font-weight="normal" font-style="normal">W120 x D80 x H40 mm</text>
<text x="1326.00" y="948.00" font-family="Noto Sans JP, Meiryo, Yu Gothic, Arial, sans-serif" font-size="14" fill="#9999cc" text-anchor="end" dominant-baseline="central" font-weight="normal" font-style="normal">技術図面 / TECHNICAL DRAWING</text>
<text x="1326.00" y="977.60" font-family="Noto Sans JP, Meiryo, Yu Gothic, Arial, sans-serif" font-size="11" fill="#9999cc" text-anchor="end" dominant-baseline="central" font-weight="normal" font-style="normal">作成日: 2026-03-03  |  text-to-cad skill</text>
</svg>