<?xml version="1.0" encoding="UTF-8" standalone="no"?>
<svg
   xmlns:svg="http://www.w3.org/2000/svg"
   xmlns="http://www.w3.org/2000/svg"
   width="800.0"
   height="600.0"

>
    <g transform="scale(4.2802503764216135, -4.2802503764216135)   translate(74.76198162676812,-46.891923941679316)" stroke-width="0.23363119258365037"  fill="none">
       <!-- hidden lines -->
       <g  stroke="rgb(160,160,160)" fill="none" stroke-dasharray="0.23363119258365037,0.23363119258365037" >
			<path d="M69.65001794687493,13.788582233137676 L15.20279579551076,-4.360491817317046 " />
			<path d="M69.65001794687491,13.788582233137678 L69.7488734551392,13.824938981649128 L69.83656219354891,13.86435050722115 L69.87595069009551,13.885084251634341 L69.91223967161763,13.906437255317952 L69.94534171478026,13.92835807701581 L69.97517707386203,13.950793907548405 L70.00167387286963,13.973690697034842 L70.02476827869341,13.99699328510372 L70.04440465488692,14.02064553377932 L70.06053569569994,14.044590462722887 L70.07312254004226,14.06877038650327 L70.08213486510338,14.093127053566171 L70.08755095940285,14.117601786567242 L70.0893577750951,14.14213562373095 " />
			<path d="M15.202795795510768,-4.360491817317045 L15.093725549976416,-4.393443653405139 L14.975490973260351,-4.422673232875043 L14.849230728969944,-4.447899058897948 L14.716160772278583,-4.468878192979414 L14.57756263961264,-4.485408594589876 L14.43477110675514,-4.497331066925386 L14.28916133422529,-4.504530790059869 L14.142135623730947,-4.506938426723771 L13.995109913236606,-4.504530790059869 L13.849500140706756,-4.497331066925386 L13.706708607849254,-4.485408594589876 L13.568110475183312,-4.468878192979414 L13.43504051849195,-4.447899058897948 L13.308780274201544,-4.422673232875043 L13.19054569748548,-4.393443653405139 L13.081475451951132,-4.360491817317047 " />
			<path d="M13.081475451951126,-4.360491817317043 L-69.65001794687493,23.216672648958312 " />
			<path d="M-70.0893577750951,23.570226039551585 L-70.08755095940285,23.545692202387876 L-70.08213486510338,23.521217469386805 L-70.07312254004226,23.496860802323905 L-70.06053569569994,23.47268087854352 L-70.04440465488692,23.448735949599953 L-70.02476827869341,23.425083700924354 L-70.00167387286963,23.401781112855474 L-69.97517707386203,23.37888432336904 L-69.94534171478026,23.356448492836442 L-69.91223967161763,23.334527671138588 L-69.87595069009551,23.313174667454973 L-69.83656219354891,23.292440923041784 L-69.7488734551392,23.253029397469763 L-69.65001794687491,23.216672648958312 " />
			<path d="M58.689862838483435,13.435028842544403 L58.791395870988666,13.470576668883933 L58.887573855012,13.507742339567306 L58.978165089365724,13.546436319238518 L59.06295133183143,13.58656539071135 L59.14172832492461,13.628032879537729 L59.21430628796885,13.670738886904953 L59.28051037429412,13.714580530300669 L59.34018109245765,13.759452191365861 L59.393174690472854,13.80524577033873 L59.439363502120415,13.851850946476489 L59.47863625450742,13.899155443827686 L59.51089833613348,13.947045301714823 L59.53607202481813,13.995405149275589 L59.55409667494038,14.044118483401391 L59.56492886353931,14.093067949403533 L59.56854249492379,14.142135623730946 " />
			<path d="M59.56854249492379,14.142135623730951 L59.56492886353931,14.191203298058369 L59.55409667494038,14.240152764060511 L59.53607202481813,14.288866098186313 L59.51089833613348,14.337225945747079 L59.47863625450742,14.385115803634214 L59.439363502120415,14.432420300985413 L59.393174690472854,14.479025477123171 L59.34018109245765,14.52481905609604 L59.28051037429412,14.569690717161233 L59.21430628796885,14.613532360556949 L59.14172832492461,14.656238367924173 L59.06295133183143,14.697705856750552 L58.978165089365724,14.737834928223384 L58.887573855012,14.776528907894596 L58.791395870988666,14.81369457857797 L58.689862838483435,14.849242404917499 L58.58321935946484,14.88308674908591 L58.471722347414726,14.915146077093688 L58.35564040840109,14.945343155211596 L58.235253193982594,14.973605236033496 L58.110850727503454,14.999864233731223 L57.98273270540178,15.024056888079306 L57.85120777521464,15.046124916854394 L57.716592792019064,15.066015156242237 L57.579212055100456,15.083679688913971 L57.43939652668718,15.09907595946316 L57.297483034633586,15.112166876925494 L57.153813460972174,15.122920904134181 L57.00873391828988,15.131312133695731 L56.86259391591247,15.137320350403147 L56.71574551790604,15.140931079936124 L56.56854249492379,15.142135623730951 L56.421339471941536,15.140931079936124 L56.27449107393511,15.137320350403147 L56.12835107155771,15.131312133695733 L55.983271528875406,15.122920904134181 L55.83960195521399,15.112166876925494 L55.697688463160404,15.09907595946316 L55.55787293474713,15.083679688913971 L55.42049219782852,15.066015156242237 L55.28587721463294,15.046124916854394 L55.1543522844458,15.024056888079306 L55.026234262344126,14.999864233731223 L54.901831795864986,14.973605236033496 L54.78144458144649,14.945343155211596 L54.665362642432854,14.915146077093688 L54.55386563038274,14.88308674908591 L54.447222151364144,14.849242404917499 L54.345689118858914,14.81369457857797 L54.24951113483558,14.776528907894596 L54.158919900481855,14.737834928223384 L54.07413365801615,14.697705856750552 L53.99535666492297,14.656238367924173 L53.92277870187873,14.613532360556949 L53.85657461555346,14.569690717161233 L53.79690389738993,14.52481905609604 L53.743910299374726,14.479025477123171 L53.697721487727165,14.432420300985415 L53.65844873534016,14.385115803634216 L53.6261866537141,14.337225945747079 L53.60101296502945,14.288866098186313 L53.5829883149072,14.240152764060511 L53.57215612630827,14.191203298058369 L53.56854249492379,14.14213562373096 " />
			<path d="M53.56854249492379,14.142135623730951 L53.570575341158744,14.105328400789592 L53.57667112488772,14.068571060131283 L53.58682158491672,14.031913416437067 L53.60101296502945,13.995405149275589 L53.61922603263014,13.95909573577581 L53.64143610480821,13.92303438357408 L53.667613081789234,13.887269964126437 L53.697721487727165,13.851850946476489 L53.731720518782225,13.816825331568689 L53.76956409841957,13.782240587195963 L53.81120093985362,13.748143583669902 L53.85657461555346,13.714580530300669 L53.90562363371523,13.681596912772712 L53.958281521597655,13.649237431501167 L54.01447691560799,13.617545941052482 L54.07413365801615,13.58656539071135 L54.137170900166005,13.556337766274513 L54.20350321204397,13.526904033150325 L54.345689118858914,13.470576668883933 L54.499920860712585,13.417888540779485 L54.665362642432854,13.369125170368214 L54.84111792067025,13.324550810579368 L55.026234262344126,13.284407013730679 L55.21970850595997,13.248911322535436 L55.42049219782852,13.218256091219665 L55.627497273727116,13.192607443137915 L55.83960195521399,13.172104370536408 L56.05565682864288,13.15685798134201 L56.2744910739351,13.146950897058755 L56.49491880935505,13.142436805034746 L56.71574551790604,13.143340167525778 L56.935774520521434,13.149656089132241 L57.153813460972174,13.16135034332772 L57.36868076734848,13.178359557935512 L57.57921205510045,13.20059155854793 L57.78426643693876,13.22792586802742 L57.98273270540178,13.260214359382596 L58.17353535458508,13.297282058481244 L58.35564040840109,13.338928092250306 L58.52806102378512,13.384926777224466 L58.68986283848342,13.4350288425444 " />
			<path d="M-12.020815280171306,37.00525488209599 L-11.919282247666072,37.040802708435514 L-11.823104263642737,37.07796837911889 L-11.732513029289013,37.1166623587901 L-11.647726786823311,37.156791430262935 L-11.56894979373013,37.19825891908931 L-11.496371830685883,37.24096492645654 L-11.430167744360618,37.28480656985225 L-11.370497026197087,37.329678230917445 L-11.317503428181885,37.375471809890314 L-11.27131461653432,37.422076986028074 L-11.232041864147316,37.46938148337927 L-11.199779782521256,37.51727134126641 L-11.174606093836605,37.565631188827176 L-11.156581443714357,37.614344522952976 L-11.14574925511543,37.66329398895512 L-11.142135623730947,37.71236166328253 " />
			<path d="M-11.142135623730947,37.712361663282536 L-11.14574925511543,37.761429337609954 L-11.156581443714357,37.810378803612096 L-11.174606093836605,37.859092137737896 L-11.199779782521256,37.907451985298664 L-11.232041864147316,37.9553418431858 L-11.27131461653432,38.002646340537 L-11.317503428181885,38.04925151667476 L-11.370497026197087,38.09504509564763 L-11.430167744360617,38.13991675671282 L-11.496371830685883,38.18375840010853 L-11.56894979373013,38.22646440747576 L-11.647726786823311,38.26793189630214 L-11.732513029289011,38.30806096777497 L-11.823104263642737,38.34675494744618 L-11.91928224766607,38.38392061812955 L-12.020815280171306,38.41946844446908 L-12.127458759189892,38.4533127886375 L-12.238955771240011,38.48537211664527 L-12.355037710253647,38.51556919476318 L-12.47542492467214,38.543831275585084 L-12.599827391151281,38.57009027328281 L-12.727945413252954,38.59428292763089 L-12.8594703434401,38.61635095640598 L-12.994085326635677,38.63624119579382 L-13.131466063554285,38.65390572846556 L-13.271281591967558,38.66930199901474 L-13.413195084021153,38.68239291647708 L-13.556864657682562,38.69314694368577 L-13.701944200364863,38.701538173247314 L-13.848084202742266,38.707546389954736 L-13.994932600748694,38.71115711948771 L-14.142135623730947,38.712361663282536 L-14.289338646713201,38.71115711948771 L-14.436187044719627,38.707546389954736 L-14.582327047097031,38.701538173247314 L-14.727406589779333,38.69314694368577 L-14.87107616344074,38.68239291647708 L-15.012989655494337,38.66930199901474 L-15.152805183907608,38.65390572846556 L-15.290185920826218,38.63624119579382 L-15.424800904021794,38.61635095640598 L-15.556325834208941,38.59428292763089 L-15.684443856310612,38.57009027328281 L-15.808846322789753,38.543831275585084 L-15.929233537208246,38.51556919476318 L-16.045315476221884,38.48537211664527 L-16.156812488272,38.4533127886375 L-16.26345596729059,38.41946844446908 L-16.364988999795827,38.38392061812955 L-16.461166983819158,38.34675494744618 L-16.551758218172882,38.30806096777497 L-16.636544460638582,38.26793189630214 L-16.715321453731764,38.22646440747576 L-16.78789941677601,38.18375840010853 L-16.85410350310128,38.13991675671282 L-16.913774221264806,38.09504509564763 L-16.966767819280008,38.04925151667476 L-17.012956630927572,38.002646340537 L-17.05222938331458,37.9553418431858 L-17.084491464940637,37.907451985298664 L-17.10966515362529,37.859092137737896 L-17.127689803747536,37.810378803612096 L-17.138521992346465,37.761429337609954 L-17.142135623730947,37.71236166328254 " />
			<path d="M-17.142135623730947,37.712361663282536 L-17.140102777495997,37.67555444034118 L-17.134006993767017,37.63879709968287 L-17.123856533738014,37.602139455988656 L-17.10966515362529,37.565631188827176 L-17.091452086024596,37.529321775327396 L-17.069242013846534,37.49326042312567 L-17.043065036865503,37.457496003678024 L-17.012956630927576,37.422076986028074 L-16.978957599872512,37.38705137112027 L-16.941114020235165,37.35246662674755 L-16.89947717880112,37.318369623221486 L-16.85410350310128,37.28480656985226 L-16.80505448493951,37.2518229523243 L-16.752396597057082,37.219463471052755 L-16.696201203046744,37.18777198060407 L-16.636544460638582,37.156791430262935 L-16.573507218488732,37.126563805826095 L-16.507174906610768,37.09713007270191 L-16.364988999795827,37.04080270843552 L-16.21075725794215,36.98811458033107 L-16.045315476221884,36.9393512099198 L-15.869560197984484,36.89477685013095 L-15.684443856310613,36.854633053282264 L-15.49096961269477,36.81913736208702 L-15.290185920826218,36.78848213077125 L-15.083180844927623,36.7628334826895 L-14.87107616344074,36.742330410087995 L-14.655021290011852,36.72708402089359 L-14.436187044719631,36.717176936610336 L-14.215759309299687,36.71266284458633 L-13.994932600748696,36.71356620707736 L-13.774903598133301,36.71988212868383 L-13.556864657682565,36.731576382879304 L-13.341997351306254,36.74858559748709 L-13.13146606355429,36.77081759809951 L-12.92641168171598,36.798151907579005 L-12.727945413252957,36.83044039893418 L-12.537142764069658,36.86750809803283 L-12.355037710253649,36.90915413180189 L-12.182617094869618,36.95515281677605 L-12.020815280171316,37.00525488209598 " />
			<path d="M16.26345596729059,-0.7071067811865476 L16.364988999795823,-0.6715589548470186 L16.461166983819158,-0.6343932841636455 L16.551758218172882,-0.5956993044924331 L16.636544460638582,-0.5555702330196022 L16.715321453731764,-0.5141027441932218 L16.787899416776014,-0.47139673682599786 L16.85410350310128,-0.4275550934302824 L16.91377422126481,-0.3826834323650899 L16.966767819280008,-0.3368898533922199 L17.012956630927576,-0.2902846772544624 L17.05222938331458,-0.24298017990326407 L17.08449146494064,-0.1950903220161286 L17.10966515362529,-0.14673047445536225 L17.127689803747536,-0.09801714032956083 L17.138521992346465,-0.049067674327417966 L17.142135623730947,-4.563356778415361e-15 " />
			<path d="M17.142135623730947,-1.2246467991473532e-16 L17.138521992346465,0.049067674327417724 L17.127689803747536,0.09801714032956059 L17.10966515362529,0.146730474455362 L17.08449146494064,0.19509032201612836 L17.05222938331458,0.24298017990326382 L17.012956630927576,0.2902846772544621 L16.966767819280008,0.33688985339221966 L16.91377422126481,0.38268343236508967 L16.85410350310128,0.4275550934302822 L16.787899416776014,0.47139673682599764 L16.715321453731764,0.5141027441932216 L16.636544460638582,0.555570233019602 L16.551758218172882,0.5956993044924329 L16.461166983819158,0.6343932841636453 L16.364988999795823,0.6715589548470184 L16.26345596729059,0.7071067811865475 L16.156812488272003,0.7409511253549592 L16.045315476221884,0.7730104533627372 L15.929233537208248,0.803207531480645 L15.808846322789755,0.8314696123025452 L15.684443856310613,0.857728610000272 L15.556325834208941,0.8819212643483549 L15.424800904021795,0.9039892931234431 L15.290185920826218,0.9238795325112865 L15.15280518390761,0.9415440651830205 L15.012989655494337,0.9569403357322086 L14.871076163440742,0.9700312531945438 L14.727406589779333,0.9807852804032303 L14.582327047097031,0.989176509964781 L14.43618704471963,0.9951847266721969 L14.289338646713201,0.9987954562051724 L14.142135623730947,1.0 L13.994932600748694,0.9987954562051724 L13.848084202742267,0.9951847266721969 L13.701944200364863,0.9891765099647811 L13.556864657682562,0.9807852804032304 L13.413195084021154,0.9700312531945439 L13.271281591967558,0.9569403357322087 L13.131466063554287,0.9415440651830206 L12.994085326635677,0.9238795325112866 L12.859470343440101,0.9039892931234433 L12.727945413252954,0.881921264348355 L12.599827391151283,0.8577286100002722 L12.475424924672142,0.8314696123025455 L12.355037710253649,0.8032075314806453 L12.238955771240013,0.7730104533627374 L12.127458759189894,0.7409511253549598 L12.020815280171306,0.7071067811865477 L11.919282247666068,0.671558954847018 L11.823104263642737,0.6343932841636453 L11.732513029289013,0.5956993044924332 L11.647726786823313,0.5555702330196022 L11.56894979373013,0.5141027441932219 L11.496371830685883,0.4713967368259979 L11.430167744360618,0.42755509343028253 L11.370497026197087,0.3826834323650904 L11.317503428181887,0.33688985339222083 L11.271314616534323,0.29028467725446333 L11.232041864147316,0.24298017990326504 L11.199779782521256,0.19509032201612872 L11.174606093836605,0.1467304744553615 L11.156581443714357,0.0980171403295605 L11.14574925511543,0.04906767432741809 L11.142135623730947,9.126713556830723e-15 " />
			<path d="M11.142135623730947,0.0 L11.144168469965898,-0.03680722294135882 L11.150264253694877,-0.0735645635996674 L11.16041471372388,-0.11022220729388302 L11.174606093836605,-0.1467304744553617 L11.1928191614373,-0.1830398879551409 L11.215029233615361,-0.21910124015686971 L11.241206210596392,-0.25486565960451446 L11.27131461653432,-0.2902846772544623 L11.305313647589383,-0.3253102921622628 L11.34315722722673,-0.359895036534988 L11.384794068660774,-0.39399204006104793 L11.430167744360617,-0.4275550934302819 L11.479216762522386,-0.46053871095823984 L11.531874650404813,-0.49289819222978387 L11.58807004441515,-0.5245896826784687 L11.647726786823311,-0.5555702330196021 L11.710764028973163,-0.5857978574564386 L11.777096340851127,-0.6152315905806266 L11.91928224766607,-0.6715589548470182 L12.073513989519746,-0.7242470829514667 L12.23895577124001,-0.7730104533627368 L12.414711049477411,-0.8175848131515835 L12.599827391151281,-0.8577286100002719 L12.793301634767126,-0.8932243011955151 L12.994085326635677,-0.9238795325112865 L13.201090402534271,-0.9495281805930365 L13.413195084021154,-0.9700312531945439 L13.629249957450043,-0.9852776423889411 L13.848084202742264,-0.9951847266721968 L14.068511938162208,-0.9996988186962042 L14.2893386467132,-0.9987954562051724 L14.509367649328594,-0.9924795345987101 L14.72740658977933,-0.9807852804032305 L14.94227389615564,-0.9637760657954401 L15.152805183907605,-0.941544065183021 L15.357859565745915,-0.914209755703531 L15.556325834208938,-0.8819212643483554 L15.747128483392236,-0.8448535652497077 L15.929233537208246,-0.8032075314806455 L16.101654152592275,-0.757208846506485 L16.26345596729058,-0.7071067811865513 " />
			<path d="M-54.447222151364144,22.86311925836504 L-54.345689118858914,22.898667084704567 L-54.24951113483558,22.93583275538794 L-54.158919900481855,22.97452673505915 L-54.07413365801615,23.014655806531984 L-53.99535666492297,23.056123295358365 L-53.92277870187873,23.098829302725587 L-53.85657461555346,23.142670946121303 L-53.79690389738993,23.187542607186494 L-53.743910299374726,23.233336186159367 L-53.697721487727165,23.279941362297123 L-53.65844873534016,23.327245859648322 L-53.6261866537141,23.375135717535457 L-53.60101296502945,23.42349556509622 L-53.5829883149072,23.472208899222025 L-53.57215612630827,23.521158365224167 L-53.56854249492379,23.57022603955158 " />
			<path d="M-53.56854249492379,23.570226039551585 L-53.57215612630827,23.619293713879003 L-53.5829883149072,23.668243179881145 L-53.60101296502945,23.71695651400695 L-53.6261866537141,23.765316361567713 L-53.65844873534016,23.813206219454848 L-53.697721487727165,23.860510716806047 L-53.743910299374726,23.907115892943803 L-53.79690389738993,23.952909471916676 L-53.85657461555346,23.997781132981867 L-53.92277870187873,24.041622776377583 L-53.99535666492297,24.084328783744805 L-54.07413365801615,24.125796272571186 L-54.158919900481855,24.16592534404402 L-54.24951113483558,24.20461932371523 L-54.345689118858914,24.241784994398603 L-54.447222151364144,24.27733282073813 L-54.55386563038274,24.311177164906546 L-54.665362642432854,24.343236492914322 L-54.78144458144649,24.37343357103223 L-54.901831795864986,24.40169565185413 L-55.026234262344126,24.427954649551857 L-55.1543522844458,24.45214730389994 L-55.28587721463294,24.47421533267503 L-55.420492197828516,24.49410557206287 L-55.557872934747124,24.511770104734605 L-55.6976884631604,24.527166375283795 L-55.83960195521399,24.54025729274613 L-55.983271528875406,24.551011319954814 L-56.1283510715577,24.559402549516367 L-56.27449107393511,24.56541076622378 L-56.421339471941536,24.569021495756758 L-56.56854249492379,24.570226039551585 L-56.71574551790604,24.569021495756758 L-56.86259391591247,24.56541076622378 L-57.00873391828987,24.559402549516367 L-57.153813460972174,24.551011319954817 L-57.297483034633586,24.54025729274613 L-57.439396526687176,24.527166375283795 L-57.57921205510045,24.511770104734605 L-57.71659279201906,24.49410557206287 L-57.85120777521464,24.47421533267503 L-57.98273270540178,24.45214730389994 L-58.110850727503454,24.427954649551857 L-58.235253193982594,24.40169565185413 L-58.35564040840109,24.37343357103223 L-58.471722347414726,24.343236492914322 L-58.58321935946484,24.311177164906546 L-58.689862838483435,24.27733282073813 L-58.791395870988666,24.241784994398603 L-58.887573855012,24.20461932371523 L-58.978165089365724,24.16592534404402 L-59.06295133183143,24.125796272571186 L-59.14172832492461,24.084328783744805 L-59.21430628796885,24.041622776377583 L-59.28051037429412,23.997781132981867 L-59.34018109245765,23.952909471916676 L-59.393174690472854,23.907115892943807 L-59.439363502120415,23.860510716806047 L-59.47863625450742,23.81320621945485 L-59.51089833613348,23.765316361567713 L-59.53607202481813,23.716956514006945 L-59.55409667494038,23.668243179881145 L-59.56492886353931,23.619293713879003 L-59.56854249492379,23.570226039551596 " />
			<path d="M-59.56854249492379,23.570226039551585 L-59.566509648688836,23.533418816610226 L-59.56041386495986,23.496661475951917 L-59.55026340493086,23.4600038322577 L-59.53607202481813,23.423495565096225 L-59.51785895721744,23.387186151596445 L-59.49564888503937,23.351124799394714 L-59.469471908058345,23.31536037994707 L-59.439363502120415,23.279941362297123 L-59.405364471065354,23.24491574738932 L-59.36752089142801,23.2103310030166 L-59.32588404999396,23.176233999490538 L-59.28051037429412,23.142670946121303 L-59.23146135613235,23.109687328593346 L-59.178803468249924,23.0773278473218 L-59.12260807423959,23.045636356873118 L-59.06295133183143,23.014655806531984 L-58.999914089681575,22.984428182095147 L-58.93358177780361,22.954994448970957 L-58.791395870988666,22.898667084704567 L-58.637164129134995,22.845978956600117 L-58.471722347414726,22.797215586188848 L-58.29596706917733,22.7526412264 L-58.110850727503454,22.712497429551313 L-57.91737648388761,22.67700173835607 L-57.71659279201906,22.6463465070403 L-57.509587716120464,22.62069785895855 L-57.297483034633586,22.60019478635704 L-57.0814281612047,22.584948397162645 L-56.86259391591248,22.57504131287939 L-56.64216618049253,22.570527220855382 L-56.421339471941536,22.571430583346412 L-56.201310469326145,22.577746504952874 L-55.983271528875406,22.589440759148353 L-55.7684042224991,22.606449973756146 L-55.55787293474713,22.628681974368565 L-55.35281855290882,22.656016283848054 L-55.1543522844458,22.68830477520323 L-54.9635496352625,22.725372474301878 L-54.78144458144649,22.76701850807094 L-54.60902396606246,22.8130171930451 L-54.44722215136416,22.863119258365035 " />
			<path d="M-67.88225099390856,-14.142135623730951 L-67.88225099390856,21.68460795638746 " />
			<path d="M-14.142135623730947,3.7712361663282508 L-67.88225099390856,21.68460795638746 " />
			<path d="M-14.142135623730951,3.7712361663282508 L-14.142135623730951,39.59797974644666 " />
			<path d="M-67.88225099390856,21.68460795638746 L-14.142135623730951,39.59797974644666 " />
			<path d="M67.88225099390856,12.256517540566824 L-14.142135623730951,39.59797974644667 " />
			<path d="M67.88225099390856,12.256517540566824 L67.88225099390856,-23.570226039551585 " />
			<path d="M14.142135623730951,-5.656854249492378 L67.88225099390856,12.256517540566826 " />
			<path d="M58.689862838483435,11.549410759380278 L58.791395870988666,11.584958585719807 L58.887573855012,11.62212425640318 L58.978165089365724,11.660818236074393 L59.06295133183143,11.700947307547224 L59.14172832492461,11.742414796373604 L59.21430628796885,11.785120803740828 L59.28051037429412,11.828962447136544 L59.34018109245765,11.873834108201736 L59.393174690472854,11.919627687174605 L59.439363502120415,11.966232863312364 L59.47863625450742,12.01353736066356 L59.51089833613348,12.061427218550698 L59.53607202481813,12.109787066111464 L59.55409667494038,12.158500400237266 L59.56492886353931,12.207449866239408 L59.56854249492379,12.25651754056682 " />
			<path d="M59.56854249492379,12.256517540566826 L59.56492886353931,12.305585214894244 L59.55409667494038,12.354534680896386 L59.53607202481813,12.403248015022188 L59.51089833613348,12.451607862582954 L59.47863625450742,12.499497720470089 L59.439363502120415,12.546802217821288 L59.393174690472854,12.593407393959046 L59.34018109245765,12.639200972931915 L59.28051037429412,12.684072633997108 L59.21430628796885,12.727914277392824 L59.14172832492461,12.770620284760048 L59.06295133183143,12.812087773586427 L58.978165089365724,12.852216845059258 L58.887573855012,12.89091082473047 L58.791395870988666,12.928076495413844 L58.689862838483435,12.963624321753374 L58.58321935946484,12.997468665921785 L58.471722347414726,13.029527993929563 L58.35564040840109,13.05972507204747 L58.235253193982594,13.08798715286937 L58.110850727503454,13.114246150567098 L57.98273270540178,13.13843880491518 L57.85120777521464,13.160506833690269 L57.716592792019064,13.180397073078112 L57.579212055100456,13.198061605749846 L57.43939652668718,13.213457876299035 L57.297483034633586,13.226548793761369 L57.153813460972174,13.237302820970056 L57.00873391828988,13.245694050531606 L56.86259391591247,13.251702267239022 L56.71574551790604,13.255312996771998 L56.56854249492379,13.256517540566826 L56.421339471941536,13.255312996771998 L56.27449107393511,13.251702267239022 L56.12835107155771,13.245694050531608 L55.983271528875406,13.237302820970056 L55.83960195521399,13.226548793761369 L55.697688463160404,13.213457876299035 L55.55787293474713,13.198061605749846 L55.42049219782852,13.180397073078112 L55.28587721463294,13.160506833690269 L55.1543522844458,13.13843880491518 L55.026234262344126,13.114246150567098 L54.901831795864986,13.08798715286937 L54.78144458144649,13.05972507204747 L54.665362642432854,13.029527993929563 L54.55386563038274,12.997468665921785 L54.447222151364144,12.963624321753374 L54.345689118858914,12.928076495413844 L54.24951113483558,12.89091082473047 L54.158919900481855,12.852216845059258 L54.07413365801615,12.812087773586427 L53.99535666492297,12.770620284760048 L53.92277870187873,12.727914277392824 L53.85657461555346,12.684072633997108 L53.79690389738993,12.639200972931915 L53.743910299374726,12.593407393959046 L53.697721487727165,12.54680221782129 L53.65844873534016,12.49949772047009 L53.6261866537141,12.451607862582954 L53.60101296502945,12.403248015022188 L53.5829883149072,12.354534680896386 L53.57215612630827,12.305585214894244 L53.56854249492379,12.256517540566835 " />
			<path d="M53.56854249492379,12.256517540566826 L53.570575341158744,12.219710317625466 L53.57667112488772,12.182952976967158 L53.58682158491672,12.146295333272942 L53.60101296502945,12.109787066111464 L53.61922603263014,12.073477652611684 L53.64143610480821,12.037416300409955 L53.667613081789234,12.001651880962312 L53.697721487727165,11.966232863312364 L53.731720518782225,11.931207248404563 L53.76956409841957,11.896622504031837 L53.81120093985362,11.862525500505777 L53.85657461555346,11.828962447136544 L53.90562363371523,11.795978829608586 L53.958281521597655,11.763619348337041 L54.01447691560799,11.731927857888357 L54.07413365801615,11.700947307547224 L54.137170900166005,11.670719683110388 L54.20350321204397,11.6412859499862 L54.345689118858914,11.584958585719807 L54.499920860712585,11.53227045761536 L54.665362642432854,11.483507087204089 L54.84111792067025,11.438932727415242 L55.026234262344126,11.398788930566553 L55.21970850595997,11.36329323937131 L55.42049219782852,11.33263800805554 L55.627497273727116,11.30698935997379 L55.83960195521399,11.286486287372282 L56.05565682864288,11.271239898177885 L56.2744910739351,11.26133281389463 L56.49491880935505,11.256818721870621 L56.71574551790604,11.257722084361653 L56.935774520521434,11.264038005968116 L57.153813460972174,11.275732260163595 L57.36868076734848,11.292741474771386 L57.57921205510045,11.314973475383805 L57.78426643693876,11.342307784863294 L57.98273270540178,11.37459627621847 L58.17353535458508,11.411663975317119 L58.35564040840109,11.45331000908618 L58.52806102378512,11.49930869406034 L58.68986283848342,11.549410759380274 " />
			<path d="M-12.020815280171306,35.119636798931865 L-11.919282247666072,35.15518462527139 L-11.823104263642737,35.19235029595477 L-11.732513029289013,35.231044275625976 L-11.647726786823311,35.27117334709881 L-11.56894979373013,35.31264083592519 L-11.496371830685883,35.355346843292416 L-11.430167744360618,35.399188486688125 L-11.370497026197087,35.44406014775332 L-11.317503428181885,35.48985372672619 L-11.27131461653432,35.53645890286395 L-11.232041864147316,35.58376340021515 L-11.199779782521256,35.63165325810228 L-11.174606093836605,35.68001310566305 L-11.156581443714357,35.72872643978885 L-11.14574925511543,35.77767590579099 L-11.142135623730947,35.8267435801184 " />
			<path d="M-11.142135623730947,35.82674358011841 L-11.14574925511543,35.87581125444583 L-11.156581443714357,35.92476072044797 L-11.174606093836605,35.97347405457377 L-11.199779782521256,36.02183390213454 L-11.232041864147316,36.069723760021674 L-11.27131461653432,36.11702825737287 L-11.317503428181885,36.16363343351063 L-11.370497026197087,36.2094270124835 L-11.430167744360617,36.254298673548696 L-11.496371830685883,36.298140316944405 L-11.56894979373013,36.340846324311634 L-11.647726786823311,36.38231381313801 L-11.732513029289011,36.422442884610845 L-11.823104263642737,36.461136864282054 L-11.91928224766607,36.49830253496543 L-12.020815280171306,36.53385036130496 L-12.127458759189892,36.56769470547337 L-12.238955771240011,36.59975403348115 L-12.355037710253647,36.629951111599055 L-12.47542492467214,36.65821319242096 L-12.599827391151281,36.68447219011868 L-12.727945413252954,36.70866484446677 L-12.8594703434401,36.730732873241855 L-12.994085326635677,36.7506231126297 L-13.131466063554285,36.768287645301434 L-13.271281591967558,36.78368391585062 L-13.413195084021153,36.79677483331295 L-13.556864657682562,36.80752886052164 L-13.701944200364863,36.81592009008319 L-13.848084202742266,36.82192830679061 L-13.994932600748694,36.82553903632358 L-14.142135623730947,36.82674358011841 L-14.289338646713201,36.82553903632358 L-14.436187044719627,36.82192830679061 L-14.582327047097031,36.81592009008319 L-14.727406589779333,36.80752886052164 L-14.87107616344074,36.79677483331295 L-15.012989655494337,36.78368391585062 L-15.152805183907608,36.768287645301434 L-15.290185920826218,36.7506231126297 L-15.424800904021794,36.730732873241855 L-15.556325834208941,36.70866484446677 L-15.684443856310612,36.68447219011868 L-15.808846322789753,36.65821319242096 L-15.929233537208246,36.629951111599055 L-16.045315476221884,36.59975403348115 L-16.156812488272,36.56769470547337 L-16.26345596729059,36.53385036130496 L-16.364988999795827,36.498302534965426 L-16.461166983819158,36.461136864282054 L-16.551758218172882,36.422442884610845 L-16.636544460638582,36.38231381313801 L-16.715321453731764,36.340846324311634 L-16.78789941677601,36.29814031694441 L-16.85410350310128,36.254298673548696 L-16.913774221264806,36.2094270124835 L-16.966767819280008,36.16363343351063 L-17.012956630927572,36.11702825737287 L-17.05222938331458,36.069723760021674 L-17.084491464940637,36.02183390213454 L-17.10966515362529,35.97347405457377 L-17.127689803747536,35.92476072044797 L-17.138521992346465,35.87581125444583 L-17.142135623730947,35.82674358011842 " />
			<path d="M-17.142135623730947,35.82674358011841 L-17.140102777495997,35.789936357177055 L-17.134006993767017,35.75317901651874 L-17.123856533738014,35.71652137282453 L-17.10966515362529,35.68001310566305 L-17.091452086024596,35.64370369216327 L-17.069242013846534,35.607642339961544 L-17.043065036865503,35.5718779205139 L-17.012956630927576,35.53645890286395 L-16.978957599872512,35.50143328795615 L-16.941114020235165,35.466848543583424 L-16.89947717880112,35.43275154005736 L-16.85410350310128,35.39918848668813 L-16.80505448493951,35.36620486916017 L-16.752396597057082,35.33384538788863 L-16.696201203046744,35.30215389743994 L-16.636544460638582,35.27117334709881 L-16.573507218488732,35.24094572266197 L-16.507174906610768,35.21151198953778 L-16.364988999795827,35.155184625271396 L-16.21075725794215,35.102496497166946 L-16.045315476221884,35.053733126755674 L-15.869560197984484,35.00915876696683 L-15.684443856310613,34.96901497011814 L-15.49096961269477,34.933519278922894 L-15.290185920826218,34.902864047607125 L-15.083180844927623,34.877215399525376 L-14.87107616344074,34.85671232692387 L-14.655021290011852,34.84146593772947 L-14.436187044719631,34.83155885344621 L-14.215759309299687,34.82704476142221 L-13.994932600748696,34.82794812391324 L-13.774903598133301,34.8342640455197 L-13.556864657682565,34.84595829971518 L-13.341997351306254,34.86296751432297 L-13.13146606355429,34.88519951493539 L-12.92641168171598,34.91253382441488 L-12.727945413252957,34.944822315770054 L-12.537142764069658,34.9818900148687 L-12.355037710253649,35.023536048637766 L-12.182617094869618,35.069534733611924 L-12.020815280171316,35.11963679893186 " />
			<path d="M16.26345596729059,-2.592724864350673 L16.364988999795823,-2.557177038011144 L16.461166983819158,-2.520011367327771 L16.551758218172882,-2.4813173876565586 L16.636544460638582,-2.4411883161837276 L16.715321453731764,-2.3997208273573474 L16.787899416776014,-2.3570148199901233 L16.85410350310128,-2.313173176594408 L16.91377422126481,-2.2683015155292154 L16.966767819280008,-2.222507936556345 L17.012956630927576,-2.175902760418588 L17.05222938331458,-2.1285982630673894 L17.08449146494064,-2.080708405180254 L17.10966515362529,-2.0323485576194877 L17.127689803747536,-1.9836352234936863 L17.138521992346465,-1.9346857574915433 L17.142135623730947,-1.88561808316413 " />
			<path d="M17.142135623730947,-1.8856180831641256 L17.138521992346465,-1.8365504088367077 L17.127689803747536,-1.7876009428345647 L17.10966515362529,-1.7388876087087635 L17.08449146494064,-1.690527761147997 L17.05222938331458,-1.6426379032608616 L17.012956630927576,-1.5953334059096633 L16.966767819280008,-1.5487282297719056 L16.91377422126481,-1.5029346507990358 L16.85410350310128,-1.4580629897338433 L16.787899416776014,-1.4142213463381277 L16.715321453731764,-1.3715153389709038 L16.636544460638582,-1.3300478501445234 L16.551758218172882,-1.2899187786716926 L16.461166983819158,-1.2512247990004801 L16.364988999795823,-1.214059128317107 L16.26345596729059,-1.178511301977578 L16.156812488272003,-1.1446669578091662 L16.045315476221884,-1.112607629801388 L15.929233537208248,-1.0824105516834803 L15.808846322789755,-1.05414847086158 L15.684443856310613,-1.0278894731638535 L15.556325834208941,-1.0036968188157704 L15.424800904021795,-0.9816287900406823 L15.290185920826218,-0.9617385506528389 L15.15280518390761,-0.9440740179811049 L15.012989655494337,-0.9286777474319168 L14.871076163440742,-0.9155868299695816 L14.727406589779333,-0.9048328027608951 L14.582327047097031,-0.8964415731993444 L14.43618704471963,-0.8904333564919285 L14.289338646713201,-0.886822626958953 L14.142135623730947,-0.8856180831641254 L13.994932600748694,-0.886822626958953 L13.848084202742267,-0.8904333564919285 L13.701944200364863,-0.8964415731993443 L13.556864657682562,-0.904832802760895 L13.413195084021154,-0.9155868299695815 L13.271281591967558,-0.9286777474319167 L13.131466063554287,-0.9440740179811048 L12.994085326635677,-0.9617385506528388 L12.859470343440101,-0.981628790040682 L12.727945413252954,-1.0036968188157704 L12.599827391151283,-1.027889473163853 L12.475424924672142,-1.05414847086158 L12.355037710253649,-1.08241055168348 L12.238955771240013,-1.112607629801388 L12.127458759189894,-1.1446669578091657 L12.020815280171306,-1.1785113019775777 L11.919282247666068,-1.2140591283171074 L11.823104263642737,-1.2512247990004801 L11.732513029289013,-1.2899187786716921 L11.647726786823313,-1.3300478501445232 L11.56894979373013,-1.3715153389709034 L11.496371830685883,-1.4142213463381275 L11.430167744360618,-1.4580629897338429 L11.370497026197087,-1.5029346507990349 L11.317503428181887,-1.5487282297719045 L11.271314616534323,-1.595333405909662 L11.232041864147316,-1.6426379032608605 L11.199779782521256,-1.6905277611479967 L11.174606093836605,-1.738887608708764 L11.156581443714357,-1.787600942834565 L11.14574925511543,-1.8365504088367073 L11.142135623730947,-1.8856180831641163 " />
			<path d="M11.142135623730947,-1.8856180831641254 L11.144168469965898,-1.9224253061054841 L11.150264253694877,-1.9591826467637927 L11.16041471372388,-1.9958402904580084 L11.174606093836605,-2.0323485576194873 L11.1928191614373,-2.0686579711192663 L11.215029233615361,-2.104719323320995 L11.241206210596392,-2.14048374276864 L11.27131461653432,-2.1759027604185874 L11.305313647589383,-2.210928375326388 L11.34315722722673,-2.2455131196991136 L11.384794068660774,-2.279610123225173 L11.430167744360617,-2.3131731765944075 L11.479216762522386,-2.3461567941223653 L11.531874650404813,-2.3785162753939093 L11.58807004441515,-2.410207765842594 L11.647726786823311,-2.4411883161837276 L11.710764028973163,-2.471415940620564 L11.777096340851127,-2.500849673744752 L11.91928224766607,-2.557177038011144 L12.073513989519746,-2.609865166115592 L12.23895577124001,-2.6586285365268623 L12.414711049477411,-2.703202896315709 L12.599827391151281,-2.7433466931643973 L12.793301634767126,-2.7788423843596406 L12.994085326635677,-2.809497615675412 L13.201090402534271,-2.835146263757162 L13.413195084021154,-2.8556493363586695 L13.629249957450043,-2.8708957255530665 L13.848084202742264,-2.880802809836322 L14.068511938162208,-2.8853169018603295 L14.2893386467132,-2.884413539369298 L14.509367649328594,-2.8780976177628355 L14.72740658977933,-2.866403363567356 L14.94227389615564,-2.8493941489595653 L15.152805183907605,-2.8271621483471465 L15.357859565745915,-2.7998278388676563 L15.556325834208938,-2.7675393475124808 L15.747128483392236,-2.730471648413833 L15.929233537208246,-2.688825614644771 L16.101654152592275,-2.64282692967061 L16.26345596729058,-2.592724864350677 " />
			<path d="M-54.447222151364144,20.977501175200914 L-54.345689118858914,21.01304900154044 L-54.24951113483558,21.050214672223813 L-54.158919900481855,21.088908651895025 L-54.07413365801615,21.12903772336786 L-53.99535666492297,21.17050521219424 L-53.92277870187873,21.21321121956146 L-53.85657461555346,21.257052862957178 L-53.79690389738993,21.30192452402237 L-53.743910299374726,21.34771810299524 L-53.697721487727165,21.394323279132998 L-53.65844873534016,21.441627776484196 L-53.6261866537141,21.48951763437133 L-53.60101296502945,21.537877481932096 L-53.5829883149072,21.5865908160579 L-53.57215612630827,21.63554028206004 L-53.56854249492379,21.684607956387456 " />
			<path d="M-53.56854249492379,21.68460795638746 L-53.57215612630827,21.733675630714878 L-53.5829883149072,21.78262509671702 L-53.60101296502945,21.831338430842823 L-53.6261866537141,21.879698278403588 L-53.65844873534016,21.927588136290723 L-53.697721487727165,21.97489263364192 L-53.743910299374726,22.021497809779678 L-53.79690389738993,22.06729138875255 L-53.85657461555346,22.11216304981774 L-53.92277870187873,22.156004693213458 L-53.99535666492297,22.19871070058068 L-54.07413365801615,22.24017818940706 L-54.158919900481855,22.280307260879894 L-54.24951113483558,22.319001240551106 L-54.345689118858914,22.356166911234478 L-54.447222151364144,22.391714737574006 L-54.55386563038274,22.42555908174242 L-54.665362642432854,22.457618409750197 L-54.78144458144649,22.487815487868104 L-54.901831795864986,22.516077568690005 L-55.026234262344126,22.542336566387732 L-55.1543522844458,22.566529220735816 L-55.28587721463294,22.588597249510904 L-55.420492197828516,22.608487488898746 L-55.557872934747124,22.62615202157048 L-55.6976884631604,22.64154829211967 L-55.83960195521399,22.654639209582005 L-55.983271528875406,22.66539323679069 L-56.1283510715577,22.67378446635224 L-56.27449107393511,22.679792683059656 L-56.421339471941536,22.683403412592632 L-56.56854249492379,22.68460795638746 L-56.71574551790604,22.683403412592632 L-56.86259391591247,22.679792683059656 L-57.00873391828987,22.67378446635224 L-57.153813460972174,22.665393236790692 L-57.297483034633586,22.654639209582005 L-57.439396526687176,22.64154829211967 L-57.57921205510045,22.62615202157048 L-57.71659279201906,22.608487488898746 L-57.85120777521464,22.588597249510904 L-57.98273270540178,22.566529220735816 L-58.110850727503454,22.542336566387732 L-58.235253193982594,22.516077568690005 L-58.35564040840109,22.487815487868104 L-58.471722347414726,22.457618409750197 L-58.58321935946484,22.42555908174242 L-58.689862838483435,22.391714737574006 L-58.791395870988666,22.356166911234478 L-58.887573855012,22.319001240551106 L-58.978165089365724,22.280307260879894 L-59.06295133183143,22.24017818940706 L-59.14172832492461,22.19871070058068 L-59.21430628796885,22.156004693213458 L-59.28051037429412,22.11216304981774 L-59.34018109245765,22.06729138875255 L-59.393174690472854,22.02149780977968 L-59.439363502120415,21.97489263364192 L-59.47863625450742,21.927588136290726 L-59.51089833613348,21.879698278403588 L-59.53607202481813,21.83133843084282 L-59.55409667494038,21.78262509671702 L-59.56492886353931,21.733675630714878 L-59.56854249492379,21.68460795638747 " />
			<path d="M-59.56854249492379,21.68460795638746 L-59.566509648688836,21.6478007334461 L-59.56041386495986,21.611043392787792 L-59.55026340493086,21.574385749093576 L-59.53607202481813,21.5378774819321 L-59.51785895721744,21.50156806843232 L-59.49564888503937,21.46550671623059 L-59.469471908058345,21.429742296782944 L-59.439363502120415,21.394323279132998 L-59.405364471065354,21.359297664225195 L-59.36752089142801,21.324712919852473 L-59.32588404999396,21.290615916326413 L-59.28051037429412,21.257052862957178 L-59.23146135613235,21.22406924542922 L-59.178803468249924,21.191709764157675 L-59.12260807423959,21.160018273708992 L-59.06295133183143,21.12903772336786 L-58.999914089681575,21.098810098931022 L-58.93358177780361,21.069376365806832 L-58.791395870988666,21.01304900154044 L-58.637164129134995,20.96036087343599 L-58.471722347414726,20.911597503024723 L-58.29596706917733,20.867023143235876 L-58.110850727503454,20.826879346387187 L-57.91737648388761,20.791383655191943 L-57.71659279201906,20.760728423876174 L-57.509587716120464,20.735079775794425 L-57.297483034633586,20.714576703192915 L-57.0814281612047,20.69933031399852 L-56.86259391591248,20.689423229715263 L-56.64216618049253,20.684909137691257 L-56.421339471941536,20.685812500182287 L-56.201310469326145,20.69212842178875 L-55.983271528875406,20.703822675984227 L-55.7684042224991,20.72083189059202 L-55.55787293474713,20.74306389120444 L-55.35281855290882,20.77039820068393 L-55.1543522844458,20.802686692039103 L-54.9635496352625,20.839754391137753 L-54.78144458144649,20.881400424906815 L-54.60902396606246,20.927399109880973 L-54.44722215136416,20.97750117520091 " />
			<path d="M53.56854249492379,14.142135623730951 L53.56854249492379,12.256517540566824 " />
			<path d="M59.568542494923804,14.142135623730951 L59.568542494923804,12.256517540566824 " />
			<path d="M-17.142135623730955,37.712361663282536 L-17.142135623730955,35.82674358011841 " />
			<path d="M-11.142135623730944,37.712361663282536 L-11.142135623730944,35.82674358011841 " />
			<path d="M11.142135623730944,0.0 L11.142135623730944,-1.885618083164127 " />
			<path d="M17.142135623730955,-3.552713678800501e-15 L17.142135623730955,-1.8856180831641305 " />
			<path d="M-59.568542494923804,23.570226039551585 L-59.568542494923804,21.68460795638746 " />
			<path d="M-53.56854249492379,23.570226039551585 L-53.56854249492379,21.68460795638746 " />

       </g>

       <!-- solid lines -->
       <g  stroke="rgb(0,0,0)" fill="none">
			<path d="M69.65001794687493,-23.923779430144858 L15.20279579551076,-42.072853480599576 " />
			<path d="M69.65001794687491,-23.923779430144858 L69.7488734551392,-23.887422681633407 L69.83656219354891,-23.848011156061386 L69.87595069009551,-23.827277411648197 L69.91223967161763,-23.805924407964582 L69.94534171478026,-23.784003586266728 L69.97517707386203,-23.76156775573413 L70.00167387286963,-23.738670966247696 L70.02476827869341,-23.715368378178816 L70.04440465488692,-23.691716129503217 L70.06053569569994,-23.66777120055965 L70.07312254004226,-23.643591276779265 L70.08213486510338,-23.619234609716365 L70.08755095940285,-23.594759876715294 L70.0893577750951,-23.57022603955159 " />
			<path d="M70.0893577750951,-23.570226039551585 L70.08755095940285,-23.545692202387876 L70.08213486510338,-23.521217469386805 L70.07312254004226,-23.496860802323905 L70.06053569569994,-23.47268087854352 L70.04440465488692,-23.448735949599953 L70.02476827869341,-23.425083700924354 L70.00167387286963,-23.401781112855474 L69.97517707386203,-23.37888432336904 L69.94534171478026,-23.356448492836442 L69.91223967161763,-23.334527671138588 L69.87595069009551,-23.313174667454973 L69.83656219354891,-23.292440923041784 L69.7488734551392,-23.253029397469763 L69.65001794687493,-23.216672648958312 " />
			<path d="M69.65001794687493,-23.216672648958312 L-13.081475451951135,4.360491817317044 " />
			<path d="M-15.202795795510768,4.360491817317045 L-15.093725549976416,4.393443653405139 L-14.975490973260351,4.422673232875043 L-14.849230728969944,4.447899058897948 L-14.716160772278583,4.468878192979414 L-14.577562639612642,4.485408594589876 L-14.434771106755141,4.497331066925386 L-14.289161334225287,4.504530790059869 L-14.142135623730947,4.506938426723771 L-13.995109913236607,4.504530790059869 L-13.849500140706756,4.497331066925386 L-13.706708607849253,4.485408594589876 L-13.568110475183312,4.468878192979414 L-13.43504051849195,4.447899058897948 L-13.308780274201546,4.422673232875043 L-13.19054569748548,4.393443653405139 L-13.081475451951135,4.3604918173170475 " />
			<path d="M-15.202795795510768,4.360491817317043 L-69.65001794687493,-13.788582233137678 " />
			<path d="M-69.65001794687491,-13.788582233137678 L-69.7488734551392,-13.824938981649128 L-69.83656219354891,-13.86435050722115 L-69.87595069009551,-13.885084251634341 L-69.91223967161763,-13.906437255317952 L-69.94534171478026,-13.92835807701581 L-69.97517707386203,-13.950793907548405 L-70.00167387286963,-13.97369069703484 L-70.02476827869341,-13.99699328510372 L-70.0444046548869,-14.020645533779318 L-70.06053569569994,-14.044590462722887 L-70.07312254004226,-14.068770386503271 L-70.08213486510338,-14.093127053566171 L-70.08755095940285,-14.117601786567242 L-70.0893577750951,-14.142135623730946 " />
			<path d="M-70.0893577750951,-14.142135623730951 L-70.08755095940285,-14.16666946089466 L-70.08213486510338,-14.191144193895731 L-70.07312254004226,-14.215500860958631 L-70.06053569569994,-14.239680784739015 L-70.04440465488692,-14.263625713682583 L-70.02476827869341,-14.287277962358182 L-70.00167387286963,-14.31058055042706 L-69.97517707386203,-14.333477339913497 L-69.94534171478026,-14.355913170446092 L-69.91223967161763,-14.37783399214395 L-69.87595069009551,-14.399186995827561 L-69.83656219354891,-14.419920740240752 L-69.7488734551392,-14.459332265812774 L-69.65001794687491,-14.495689014324224 " />
			<path d="M13.081475451951126,-42.072853480599576 L-69.65001794687493,-14.495689014324224 " />
			<path d="M15.202795795510768,-42.07285348059958 L15.093725549976416,-42.10580531668768 L14.975490973260351,-42.13503489615758 L14.849230728969944,-42.16026072218048 L14.716160772278583,-42.18123985626195 L14.57756263961264,-42.19777025787241 L14.43477110675514,-42.20969273020792 L14.28916133422529,-42.2168924533424 L14.142135623730947,-42.21930009000631 L13.995109913236606,-42.2168924533424 L13.849500140706756,-42.20969273020792 L13.706708607849254,-42.19777025787241 L13.568110475183312,-42.18123985626195 L13.43504051849195,-42.16026072218048 L13.308780274201544,-42.13503489615758 L13.19054569748548,-42.10580531668768 L13.081475451951132,-42.07285348059958 " />
			<path d="M14.142135623730947,-41.483597829610794 L-67.88225099390856,-14.142135623730955 " />
			<path d="M-14.142135623730951,3.771236166328252 L-67.88225099390856,-14.142135623730951 " />
			<path d="M67.88225099390856,-23.570226039551585 L-14.142135623730951,3.7712361663282543 " />
			<path d="M67.88225099390856,-23.570226039551585 L14.142135623730951,-41.48359782961079 " />
			<path d="M70.0893577750951,14.142135623730951 L70.08755095940285,14.16666946089466 L70.08213486510338,14.191144193895731 L70.07312254004226,14.215500860958633 L70.06053569569994,14.239680784739015 L70.04440465488692,14.263625713682583 L70.02476827869341,14.287277962358182 L70.00167387286963,14.31058055042706 L69.97517707386203,14.333477339913497 L69.94534171478026,14.355913170446092 L69.91223967161763,14.37783399214395 L69.87595069009551,14.399186995827561 L69.83656219354891,14.419920740240752 L69.7488734551392,14.459332265812774 L69.65001794687493,14.495689014324222 " />
			<path d="M69.65001794687493,14.495689014324222 L-13.081475451951135,42.072853480599576 " />
			<path d="M-15.202795795510768,42.07285348059958 L-15.093725549976416,42.10580531668768 L-14.975490973260351,42.13503489615758 L-14.849230728969944,42.16026072218048 L-14.716160772278583,42.18123985626195 L-14.577562639612642,42.19777025787241 L-14.434771106755141,42.20969273020792 L-14.289161334225287,42.2168924533424 L-14.142135623730947,42.21930009000631 L-13.995109913236607,42.2168924533424 L-13.849500140706756,42.20969273020792 L-13.706708607849253,42.19777025787241 L-13.568110475183312,42.18123985626195 L-13.43504051849195,42.16026072218048 L-13.308780274201546,42.13503489615758 L-13.19054569748548,42.10580531668768 L-13.081475451951135,42.07285348059958 " />
			<path d="M-69.65001794687491,23.923779430144858 L-69.7488734551392,23.887422681633407 L-69.83656219354891,23.848011156061386 L-69.87595069009551,23.827277411648197 L-69.91223967161763,23.805924407964582 L-69.94534171478026,23.784003586266728 L-69.97517707386203,23.76156775573413 L-70.00167387286963,23.738670966247696 L-70.02476827869341,23.715368378178816 L-70.0444046548869,23.691716129503217 L-70.06053569569994,23.66777120055965 L-70.07312254004226,23.643591276779265 L-70.08213486510338,23.619234609716365 L-70.08755095940285,23.594759876715294 L-70.0893577750951,23.57022603955159 " />
			<path d="M-15.202795795510768,42.072853480599576 L-69.65001794687493,23.923779430144858 " />
			<path d="M14.142135623730947,-5.6568542494923815 L-14.142135623730947,3.7712361663282508 " />
			<path d="M14.142135623730951,-5.6568542494923815 L14.142135623730951,-41.48359782961079 " />
			<path d="M69.65001794687493,14.495689014324224 L69.65001794687493,-23.216672648958312 " />
			<path d="M-13.081475451951125,42.072853480599576 L-13.081475451951125,4.36049181731704 " />
			<path d="M-15.20279579551077,42.07285348059958 L-15.20279579551077,4.3604918173170475 " />
			<path d="M-69.65001794687493,23.92377943014486 L-69.65001794687493,-13.788582233137674 " />
			<path d="M70.08935777509511,14.142135623730951 L70.08935777509511,-23.570226039551585 " />
			<path d="M-70.08935777509511,23.570226039551585 L-70.08935777509511,-14.142135623730951 " />

       </g>
    </g>
    
</svg>
