<?xml version="1.0" encoding="UTF-8" standalone="no"?>
<svg
   xmlns:svg="http://www.w3.org/2000/svg"
   xmlns="http://www.w3.org/2000/svg"
   width="800.0"
   height="600.0"

>
    <g transform="scale(4.2802503764216135, -4.2802503764216135)   translate(74.76198162676812,-31.448400632603608)" stroke-width="0.23363119258365037"  fill="none">
       <!-- hidden lines -->
       <g  stroke="rgb(160,160,160)" fill="none" stroke-dasharray="0.23363119258365037,0.23363119258365037" >
			<path d="M69.65001794687493,-3.653385036130498 L15.20279579551076,-21.80245908658522 " />
			<path d="M69.65001794687491,-3.653385036130496 L69.7488734551392,-3.617028287619045 L69.83656219354891,-3.577616762047023 L69.87595069009551,-3.556883017633833 L69.91223967161763,-3.535530013950221 L69.94534171478026,-3.513609192252363 L69.97517707386203,-3.491173361719767 L70.00167387286963,-3.468276572233332 L70.02476827869341,-3.444973984164453 L70.04440465488692,-3.421321735488854 L70.06053569569994,-3.3973768065452865 L70.07312254004226,-3.373196882764903 L70.08213486510338,-3.3488402157020025 L70.08755095940285,-3.324365482700931 L70.0893577750951,-3.2998316455372243 " />
			<path d="M15.202795795510768,-21.802459086585216 L15.093725549976416,-21.83541092267331 L14.975490973260351,-21.864640502143217 L14.849230728969944,-21.88986632816612 L14.716160772278583,-21.910845462247586 L14.57756263961264,-21.927375863858046 L14.43477110675514,-21.93929833619356 L14.28916133422529,-21.946498059328043 L14.142135623730947,-21.948905695991943 L13.995109913236606,-21.946498059328043 L13.849500140706756,-21.93929833619356 L13.706708607849254,-21.927375863858046 L13.568110475183312,-21.910845462247586 L13.43504051849195,-21.88986632816612 L13.308780274201544,-21.864640502143217 L13.19054569748548,-21.83541092267331 L13.081475451951132,-21.80245908658522 " />
			<path d="M13.081475451951126,-21.802459086585216 L-69.65001794687493,5.77470537969014 " />
			<path d="M-70.0893577750951,6.128258770283412 L-70.08755095940285,6.103724933119703 L-70.08213486510338,6.079250200118632 L-70.07312254004226,6.054893533055731 L-70.06053569569994,6.030713609275348 L-70.04440465488692,6.00676868033178 L-70.02476827869341,5.983116431656181 L-70.00167387286963,5.959813843587302 L-69.97517707386203,5.936917054100867 L-69.94534171478026,5.914481223568271 L-69.91223967161763,5.892560401870413 L-69.87595069009551,5.871207398186801 L-69.83656219354891,5.85047365377361 L-69.7488734551392,5.8110621282015895 L-69.65001794687491,5.774705379690139 " />
			<path d="M67.59940828143394,-3.299831645537222 L14.142135623730951,-21.11892253143822 " />
			<path d="M-14.142135623730951,23.94734965618441 L67.59940828143392,-3.2998316455372176 " />
			<path d="M-67.59940828143394,6.128258770283412 L-14.142135623730951,23.94734965618441 " />
			<path d="M14.142135623730951,-21.11892253143822 L-67.59940828143392,6.128258770283409 " />
			<path d="M67.59940828143394,-3.299831645537222 L67.59940828143394,-2.262741699796956 " />
			<path d="M14.142135623730951,-21.11892253143822 L14.142135623730951,-18.290495406692028 " />
			<path d="M67.59940828143394,-0.47140452079103135 L14.142135623730951,-18.29049540669203 " />
			<path d="M-14.142135623730951,23.94734965618441 L-14.142135623730951,24.777332820738135 " />
			<path d="M-67.59940828143394,6.128258770283412 L-67.59940828143394,7.165348716023679 " />
			<path d="M14.142135623730951,-18.29049540669203 L-67.59940828143392,8.956685895029597 " />

       </g>

       <!-- solid lines -->
       <g  stroke="rgb(0,0,0)" fill="none">
			<path d="M69.65001794687493,-6.481812160876688 L15.20279579551076,-24.630886211331408 " />
			<path d="M69.65001794687491,-6.481812160876686 L69.7488734551392,-6.445455412365234 L69.83656219354891,-6.4060438867932135 L69.87595069009551,-6.385310142380023 L69.91223967161763,-6.363957138696411 L69.94534171478026,-6.342036316998553 L69.97517707386203,-6.319600486465957 L70.00167387286963,-6.296703696979522 L70.02476827869341,-6.273401108910643 L70.04440465488692,-6.249748860235044 L70.06053569569994,-6.225803931291476 L70.07312254004226,-6.201624007511093 L70.08213486510338,-6.177267340448192 L70.08755095940285,-6.152792607447121 L70.0893577750951,-6.128258770283415 " />
			<path d="M70.0893577750951,-6.128258770283412 L70.08755095940285,-6.103724933119703 L70.08213486510338,-6.079250200118632 L70.07312254004226,-6.054893533055731 L70.06053569569994,-6.030713609275348 L70.04440465488692,-6.00676868033178 L70.02476827869341,-5.983116431656181 L70.00167387286963,-5.959813843587302 L69.97517707386203,-5.936917054100867 L69.94534171478026,-5.914481223568271 L69.91223967161763,-5.892560401870413 L69.87595069009551,-5.871207398186801 L69.83656219354891,-5.850473653773611 L69.7488734551392,-5.8110621282015895 L69.65001794687493,-5.77470537969014 " />
			<path d="M15.202795795510768,-24.630886211331408 L15.093725549976416,-24.663838047419503 L14.975490973260351,-24.69306762688941 L14.849230728969944,-24.718293452912313 L14.716160772278583,-24.739272586993778 L14.57756263961264,-24.755802988604238 L14.43477110675514,-24.76772546093975 L14.28916133422529,-24.774925184074235 L14.142135623730947,-24.777332820738135 L13.995109913236606,-24.774925184074235 L13.849500140706756,-24.76772546093975 L13.706708607849254,-24.755802988604238 L13.568110475183312,-24.739272586993778 L13.43504051849195,-24.718293452912313 L13.308780274201544,-24.69306762688941 L13.19054569748548,-24.663838047419503 L13.081475451951132,-24.63088621133141 " />
			<path d="M69.65001794687493,-5.77470537969014 L-13.081475451951135,21.802459086585216 " />
			<path d="M13.081475451951126,-24.630886211331408 L-69.65001794687493,2.946278254943948 " />
			<path d="M-15.202795795510768,21.802459086585216 L-15.093725549976416,21.83541092267331 L-14.975490973260351,21.864640502143217 L-14.849230728969944,21.88986632816612 L-14.716160772278583,21.910845462247586 L-14.577562639612642,21.927375863858046 L-14.434771106755141,21.93929833619356 L-14.289161334225287,21.946498059328043 L-14.142135623730947,21.948905695991943 L-13.995109913236607,21.946498059328043 L-13.849500140706756,21.93929833619356 L-13.706708607849253,21.927375863858046 L-13.568110475183312,21.910845462247586 L-13.43504051849195,21.88986632816612 L-13.308780274201546,21.864640502143217 L-13.19054569748548,21.83541092267331 L-13.081475451951135,21.80245908658522 " />
			<path d="M-69.65001794687491,3.653385036130496 L-69.7488734551392,3.6170282876190445 L-69.83656219354891,3.577616762047023 L-69.87595069009551,3.556883017633833 L-69.91223967161763,3.535530013950221 L-69.94534171478026,3.513609192252363 L-69.97517707386203,3.4911733617197673 L-70.00167387286963,3.4682765722333326 L-70.02476827869341,3.4449739841644536 L-70.0444046548869,3.4213217354888545 L-70.06053569569994,3.3973768065452865 L-70.07312254004226,3.373196882764903 L-70.08213486510338,3.3488402157020025 L-70.08755095940285,3.324365482700931 L-70.0893577750951,3.2998316455372265 " />
			<path d="M-70.0893577750951,3.299831645537222 L-70.08755095940285,3.275297808373513 L-70.08213486510338,3.2508230753724416 L-70.07312254004226,3.226466408309541 L-70.06053569569994,3.202286484529158 L-70.04440465488692,3.17834155558559 L-70.02476827869341,3.154689306909991 L-70.00167387286963,3.131386718841112 L-69.97517707386203,3.1084899293546773 L-69.94534171478026,3.086054098822081 L-69.91223967161763,3.064133277124223 L-69.87595069009551,3.042780273440611 L-69.83656219354891,3.022046529027421 L-69.7488734551392,2.9826350034553992 L-69.65001794687491,2.9462782549439486 " />
			<path d="M-15.202795795510768,21.802459086585216 L-69.65001794687493,3.6533850361304943 " />
			<path d="M70.0893577750951,-3.299831645537222 L70.08755095940285,-3.275297808373513 L70.08213486510338,-3.2508230753724416 L70.07312254004226,-3.226466408309541 L70.06053569569994,-3.202286484529158 L70.04440465488692,-3.17834155558559 L70.02476827869341,-3.154689306909991 L70.00167387286963,-3.1313867188411124 L69.97517707386203,-3.1084899293546773 L69.94534171478026,-3.086054098822081 L69.91223967161763,-3.064133277124223 L69.87595069009551,-3.042780273440611 L69.83656219354891,-3.022046529027421 L69.7488734551392,-2.9826350034553997 L69.65001794687493,-2.94627825494395 " />
			<path d="M69.65001794687493,-2.94627825494395 L-13.081475451951135,24.630886211331404 " />
			<path d="M-15.202795795510768,24.630886211331408 L-15.093725549976416,24.663838047419503 L-14.975490973260351,24.69306762688941 L-14.849230728969944,24.718293452912313 L-14.716160772278583,24.739272586993778 L-14.577562639612642,24.755802988604238 L-14.434771106755141,24.76772546093975 L-14.289161334225287,24.774925184074235 L-14.142135623730947,24.777332820738135 L-13.995109913236607,24.774925184074235 L-13.849500140706756,24.76772546093975 L-13.706708607849253,24.755802988604238 L-13.568110475183312,24.739272586993778 L-13.43504051849195,24.718293452912313 L-13.308780274201546,24.69306762688941 L-13.19054569748548,24.663838047419503 L-13.081475451951135,24.63088621133141 " />
			<path d="M-69.65001794687491,6.481812160876686 L-69.7488734551392,6.445455412365234 L-69.83656219354891,6.4060438867932135 L-69.87595069009551,6.385310142380023 L-69.91223967161763,6.363957138696411 L-69.94534171478026,6.342036316998553 L-69.97517707386203,6.319600486465957 L-70.00167387286963,6.296703696979522 L-70.02476827869341,6.273401108910644 L-70.0444046548869,6.249748860235044 L-70.06053569569994,6.225803931291476 L-70.07312254004226,6.201624007511093 L-70.08213486510338,6.177267340448192 L-70.08755095940285,6.152792607447121 L-70.0893577750951,6.128258770283416 " />
			<path d="M-15.202795795510768,24.630886211331408 L-69.65001794687493,6.481812160876686 " />
			<path d="M67.59940828143394,-2.262741699796956 L67.59940828143394,-0.4714045207910318 " />
			<path d="M-14.142135623730951,24.777332820738135 L-14.142135623730951,26.775776780930602 " />
			<path d="M-14.142135623730951,26.7757767809306 L67.59940828143392,-0.47140452079102957 " />
			<path d="M-67.59940828143394,7.165348716023679 L-67.59940828143394,8.956685895029603 " />
			<path d="M-67.59940828143394,8.956685895029603 L-14.142135623730951,26.7757767809306 " />
			<path d="M69.65001794687493,-2.946278254943949 L69.65001794687493,-5.77470537969014 " />
			<path d="M-13.081475451951125,24.630886211331408 L-13.081475451951125,21.802459086585216 " />
			<path d="M-15.20279579551077,24.63088621133141 L-15.20279579551077,21.80245908658522 " />
			<path d="M-69.65001794687493,6.481812160876687 L-69.65001794687493,3.6533850361304965 " />
			<path d="M70.08935777509511,-3.299831645537222 L70.08935777509511,-6.128258770283413 " />
			<path d="M-70.08935777509511,6.128258770283412 L-70.08935777509511,3.2998316455372216 " />

       </g>
    </g>
    
</svg>
